<svg width="24px" height="24px" viewBox="0 0 24 24" version="1.1" xmlns="http://www.w3.org/2000/svg" xmlns:xlink="http://www.w3.org/1999/xlink" class="web-navigation__nav-icon" aria-hidden="true"><title>Asset/Sidebar/sidebar_ListenNow</title><g id="Asset/Sidebar/sidebar_ListenNow" stroke="none" stroke-width="1" fill-rule="evenodd" fill-opacity="0.95"><path d="M12,20 C16.3764706,20 20,16.3686275 20,12 C20,7.62352941 16.3686275,4 11.9921569,4 C7.62352941,4 4,7.62352941 4,12 C4,16.3686275 7.63137255,20 12,20 Z M12,18.6666667 C8.29803922,18.6666667 5.34117647,15.7019608 5.34117647,12 C5.34117647,8.29803922 8.29019608,5.33333333 11.9921569,5.33333333 C15.6941176,5.33333333 18.6588235,8.29803922 18.6666822,12 C18.6745098,15.7019608 15.7019608,18.6666667 12,18.6666667 Z M10.5333333,15.0666667 L14.9960784,12.4313725 C15.3254902,12.2352941 15.3176471,11.7803922 14.9960784,11.5921569 L10.5333333,8.94901961 C10.1960784,8.74509804 9.74901961,8.90196078 9.74901961,9.27843137 L9.74901961,14.7372549 C9.74901961,15.1137255 10.1647059,15.2862745 10.5333333,15.0666667 Z" id="play" fill-rule="nonzero"></path></g></svg>