<svg width="24px" height="24px" viewBox="0 0 24 24" version="1.1" xmlns="http://www.w3.org/2000/svg" xmlns:xlink="http://www.w3.org/1999/xlink" aria-hidden="true">
	<title>
		Asset/Sidebar/sidebar_Browse
	</title>
	<g id="Asset/Sidebar/sidebar_Browse" stroke="none" stroke-width="1" fill-rule="evenodd" fill-opacity="0.95">
		<path d="M9.92015209,11.3535806 C10.8859316,11.3535806 11.3726236,10.8668886 11.3726236,9.86308631 L11.3726236,6.46384677 C11.3726236,5.46004448 10.8859316,4.98095703 9.92015209,4.98095703 L6.45247148,4.98095703 C5.48669202,4.98095703 5,5.46004448 5,6.46384677 L5,9.86308631 C5,10.8668886 5.48669202,11.3535806 6.45247148,11.3535806 L9.92015209,11.3535806 Z M17.5475285,11.3535806 C18.513308,11.3535806 19,10.8668886 19,9.86308631 L19,6.46384677 C19,5.46004448 18.513308,4.98095703 17.5475285,4.98095703 L14.0874525,4.98095703 C13.1140684,4.98095703 12.6273764,5.46004448 12.6273764,6.46384677 L12.6273764,9.86308631 C12.6273764,10.8668886 13.1140684,11.3535806 14.0874525,11.3535806 L17.5475285,11.3535806 Z M9.8973384,10.2813373 L6.46768061,10.2813373 C6.20152091,10.2813373 6.07224335,10.1444551 6.07224335,9.86308631 L6.07224335,6.46384677 C6.07224335,6.19008251 6.20152091,6.05320038 6.46768061,6.05320038 L9.8973384,6.05320038 C10.1634981,6.05320038 10.3003802,6.19008251 10.3003802,6.46384677 L10.3003802,9.86308631 C10.3003802,10.1444551 10.1634981,10.2813373 9.8973384,10.2813373 Z M17.5323194,10.2813373 L14.1026616,10.2813373 C13.8288973,10.2813373 13.6996198,10.1444551 13.6996198,9.86308631 L13.6996198,6.46384677 C13.6996198,6.19008251 13.8288973,6.05320038 14.1026616,6.05320038 L17.5323194,6.05320038 C17.7984791,6.05320038 17.9277567,6.19008251 17.9277567,6.46384677 L17.9277567,9.86308631 C17.9277567,10.1444551 17.7984791,10.2813373 17.5323194,10.2813373 Z M9.92015209,18.980957 C10.8859316,18.980957 11.3726236,18.5018696 11.3726236,17.4980673 L11.3726236,14.0912232 C11.3726236,13.0950255 10.8859316,12.6083335 9.92015209,12.6083335 L6.45247148,12.6083335 C5.48669202,12.6083335 5,13.0950255 5,14.0912232 L5,17.4980673 C5,18.5018696 5.48669202,18.980957 6.45247148,18.980957 L9.92015209,18.980957 Z M17.5475285,18.980957 C18.513308,18.980957 19,18.5018696 19,17.4980673 L19,14.0912232 C19,13.0950255 18.513308,12.6083335 17.5475285,12.6083335 L14.0874525,12.6083335 C13.1140684,12.6083335 12.6273764,13.0950255 12.6273764,14.0912232 L12.6273764,17.4980673 C12.6273764,18.5018696 13.1140684,18.980957 14.0874525,18.980957 L17.5475285,18.980957 Z M9.8973384,17.9087137 L6.46768061,17.9087137 C6.20152091,17.9087137 6.07224335,17.7718316 6.07224335,17.4980673 L6.07224335,14.0988278 C6.07224335,13.8174589 6.20152091,13.6805768 6.46768061,13.6805768 L9.8973384,13.6805768 C10.1634981,13.6805768 10.3003802,13.8174589 10.3003802,14.0988278 L10.3003802,17.4980673 C10.3003802,17.7718316 10.1634981,17.9087137 9.8973384,17.9087137 Z M17.5323194,17.9087137 L14.1026616,17.9087137 C13.8288973,17.9087137 13.6996198,17.7718316 13.6996198,17.4980673 L13.6996198,14.0988278 C13.6996198,13.8174589 13.8288973,13.6805768 14.1026616,13.6805768 L17.5323194,13.6805768 C17.7984791,13.6805768 17.9277567,13.8174589 17.9277567,14.0988278 L17.9277567,17.4980673 C17.9277567,17.7718316 17.7984791,17.9087137 17.5323194,17.9087137 Z" id="playlists" fill-rule="nonzero">
		</path>
	</g>
</svg>
