<svg width="24px" height="24px" viewBox="0 0 24 24" version="1.1" xmlns="http://www.w3.org/2000/svg" xmlns:xlink="http://www.w3.org/1999/xlink" class="web-navigation__nav-icon" aria-hidden="true"><title>Asset/Sidebar/sidebar_Radio</title><g id="Asset/Sidebar/sidebar_Radio" stroke="none" stroke-width="1" fill-rule="evenodd" fill-opacity="0.95"><path d="M19.3589251,18.5691083 C21.0326296,16.8186285 22,14.4616227 22,11.8896457 C22,9.31766878 21.0326296,6.96066302 19.3589251,5.21018317 C19.0825336,4.91843653 18.706334,4.9491467 18.4913628,5.18715054 C18.268714,5.43283192 18.3147793,5.77832137 18.5758157,6.05471292 C20.0422265,7.59022156 20.8483685,9.64780313 20.8483685,11.8896457 C20.8483685,14.1314884 20.0422265,16.1890699 18.5758157,17.7245786 C18.3147793,17.9932926 18.268714,18.3464596 18.4913628,18.5844634 C18.706334,18.8301448 19.0825336,18.860855 19.3589251,18.5691083 Z M5.50863724,18.5844634 C5.73128599,18.3464596 5.68522073,17.9932926 5.42418426,17.7245786 C3.95009597,16.1890699 3.15163148,14.1314884 3.15163148,11.8896457 C3.15163148,9.64780313 3.95009597,7.59022156 5.42418426,6.05471292 C5.68522073,5.77832137 5.73128599,5.43283192 5.50863724,5.18715054 C5.29366603,4.9491467 4.91746641,4.91843653 4.64107486,5.21018317 C2.96737044,6.96066302 2,9.31766878 2,11.8896457 C2,14.4616227 2.96737044,16.8186285 4.64107486,18.5691083 C4.91746641,18.860855 5.29366603,18.8301448 5.50863724,18.5844634 Z M7.46641075,16.7111429 C7.6890595,16.4577839 7.62763916,16.1276496 7.36660269,15.8435805 C6.41458733,14.776402 5.8925144,13.3944442 5.8925144,11.8896457 C5.8925144,10.3848473 6.41458733,9.0028895 7.36660269,7.935711 C7.62763916,7.6516419 7.6890595,7.32150755 7.46641075,7.06047108 C7.23608445,6.79943461 6.84452975,6.79943461 6.57581574,7.09885879 C5.40115163,8.37333096 4.74856046,10.0623905 4.74856046,11.8896457 C4.74856046,13.7092235 5.40115163,15.4059605 6.57581574,16.6727551 C6.84452975,16.9721793 7.23608445,16.9798569 7.46641075,16.7111429 Z M17.4241843,16.6727551 C18.5988484,15.4059605 19.2514395,13.7092235 19.2514395,11.8896457 C19.2514395,10.0623905 18.5988484,8.37333096 17.4241843,7.09885879 C17.1554702,6.79943461 16.7639155,6.79943461 16.5335893,7.06047108 C16.303263,7.32150755 16.3723608,7.6516419 16.6257198,7.935711 C17.5854127,9.0028895 18.1074856,10.3848473 18.1074856,11.8896457 C18.1074856,13.3944442 17.5854127,14.776402 16.6257198,15.8435805 C16.3723608,16.1276496 16.303263,16.4577839 16.5335893,16.7111429 C16.7639155,16.9798569 17.1554702,16.9721793 17.4241843,16.6727551 Z M9.36276392,14.7073041 C9.59309021,14.4462676 9.49328215,14.1391659 9.2706334,13.8243866 C8.85604607,13.3023137 8.64107486,12.6266899 8.64107486,11.8896457 C8.64107486,11.1526016 8.85604607,10.4769778 9.2706334,9.94722732 C9.49328215,9.64012559 9.59309021,9.33302386 9.36276392,9.07198739 C9.13243762,8.81095093 8.71017274,8.81095093 8.45681382,9.1257302 C7.84261036,9.88580697 7.48944338,10.8531774 7.48944338,11.8896457 C7.48944338,12.9184365 7.84261036,13.885807 8.45681382,14.6458837 C8.71017274,14.9683406 9.13243762,14.9683406 9.36276392,14.7073041 Z M15.5431862,14.6458837 C16.1573896,13.885807 16.5105566,12.9184365 16.5105566,11.8896457 C16.5105566,10.8531774 16.1573896,9.88580697 15.5431862,9.1257302 C15.2898273,8.81095093 14.8675624,8.81095093 14.6372361,9.07198739 C14.4069098,9.33302386 14.4990403,9.64012559 14.7293666,9.94722732 C15.1439539,10.4769778 15.3589251,11.1526016 15.3589251,11.8896457 C15.3589251,12.6266899 15.1439539,13.3023137 14.7293666,13.8243866 C14.4990403,14.1391659 14.4069098,14.4462676 14.6372361,14.7073041 C14.8675624,14.9683406 15.2898273,14.9683406 15.5431862,14.6458837 Z M11.9961612,13.6785133 C12.9558541,13.6785133 13.7850288,12.8646937 13.7850288,11.8819682 C13.7850288,10.8992427 12.9558541,10.0931006 11.9961612,10.0931006 C11.0364683,10.0931006 10.2149712,10.8992427 10.2149712,11.8819682 C10.2149712,12.8646937 11.0364683,13.6785133 11.9961612,13.6785133 Z" id="radio" fill-rule="nonzero"></path></g></svg>