<svg id="Capa_1" enable-background="new 0 0 512 512" height="512" viewBox="0 0 512 512" width="512" xmlns="http://www.w3.org/2000/svg"><g><path d="m241.57 138.62c1.969 1.013 7.543 4.129 9.525 5.244 1.522.856 3.213 1.285 4.904 1.285 1.69 0 3.38-.428 4.902-1.284 1.983-1.115 7.561-4.231 9.54-5.249 42.23-21.772 66.679-42.707 66.679-85.281.001-29.409-22.648-53.335-50.487-53.335-11.248 0-21.887 3.831-30.632 10.917-8.743-7.087-19.381-10.917-30.63-10.917-27.841 0-50.492 23.926-50.492 53.335 0 42.575 24.451 63.51 66.691 85.285zm-16.199-118.62c8.13 0 15.78 3.467 21.549 9.771 2.329 2.538 5.639 3.994 9.082 3.994h.006c3.445-.002 6.754-1.461 9.082-4.003 5.762-6.295 13.413-9.762 21.543-9.762 16.811 0 30.488 14.954 30.488 33.335 0 29.307-13.57 45.709-55.836 67.5-1.221.628-3.309 1.771-5.283 2.863-1.973-1.093-4.057-2.233-5.274-2.859-42.277-21.794-55.848-38.197-55.848-67.504-.001-18.381 13.678-33.335 30.491-33.335z"/><path d="m470.477 440.296h-124.078v-81.209c29.505-4.797 52.101-30.463 52.101-61.308v-126.814c0-5.522-4.477-10-10-10h-104.202c-5.523 0-10 4.478-10 10v126.813c0 30.845 22.596 56.511 52.101 61.308v81.209h-140.798v-81.209c29.505-4.797 52.101-30.463 52.101-61.308v-126.813c0-5.522-4.477-10-10-10h-104.202c-5.523 0-10 4.478-10 10v126.813c0 30.845 22.596 56.511 52.101 61.308v81.209h-124.078c-5.523 0-10 4.478-10 10v25.296c0 20.075 16.333 36.408 36.408 36.408h376.139c20.075 0 36.408-16.333 36.408-36.408v-25.296c-.001-5.522-4.478-9.999-10.001-9.999zm-176.179-259.331h84.202v36.359h-84.202zm0 116.813v-60.454h84.202v60.454c0 23.222-18.886 42.113-42.101 42.113s-42.101-18.891-42.101-42.113zm-160.798-116.813h84.202v36.359h-84.202zm0 116.813v-60.454h84.202v60.454c0 23.222-18.886 42.113-42.101 42.113s-42.101-18.891-42.101-42.113zm326.977 177.814c0 9.048-7.36 16.408-16.408 16.408h-376.138c-9.047 0-16.408-7.36-16.408-16.408v-15.296h408.954z"/></g></svg>